<svg width="750" height="146" viewBox="0 0 750 146" fill="none" xmlns="http://www.w3.org/2000/svg">
<path fill-rule="evenodd" clip-rule="evenodd" d="M0.875 45.5911V146L20.9007 142.472C23.3696 142.201 25.8386 141.115 28.0332 139.487C29.9534 137.859 31.3251 135.688 32.148 132.974L60.6778 22.2528L13.4939 30.6654C9.92772 31.2082 6.63582 33.1078 4.44122 35.8215C2.24662 38.5353 0.875 42.0632 0.875 45.5911Z" fill="#B8000C"/>
<path fill-rule="evenodd" clip-rule="evenodd" d="M32.1484 132.974L61.5012 18.1822C62.3242 15.7398 63.6958 13.5688 65.6161 11.6691C67.5363 10.0409 70.0053 8.95539 72.4742 8.41264L122.127 0V113.164L96.3404 117.506L41.2012 127.004C37.6349 127.818 32.9714 129.446 32.1484 132.974Z" fill="#F2242B"/>
<path fill-rule="evenodd" clip-rule="evenodd" d="M110.605 31.4796C89.2081 42.8773 62.5986 61.0595 52.1743 71.6431L41.4756 96.6097L46.4135 77.6134L26.1134 57.5316C26.1134 57.5316 25.8391 57.2602 25.5648 57.2602C25.2905 57.2602 25.2905 57.2602 25.0161 57.2602C24.7418 57.2602 24.7418 57.2602 24.4675 57.2602C24.1932 57.2602 24.1932 57.5316 23.9188 57.5316L8.83097 72.4573C8.55664 72.7286 8.55664 73 8.55664 73.2714C8.55664 73.5428 8.55664 73.8141 8.83097 74.0855L39.281 104.208C56.8378 81.9554 87.0135 53.1896 111.977 33.3792C112.251 33.1078 112.526 32.8364 112.526 32.5651C112.526 32.2937 112.526 32.0223 112.251 31.7509C111.977 31.4796 111.703 31.2082 111.428 31.2082C111.154 31.2082 110.88 31.2082 110.605 31.4796Z" fill="white"/>
<path fill-rule="evenodd" clip-rule="evenodd" d="M710.005 85.2119V74.0855L705.067 74.8996C704.793 74.8996 704.518 75.171 704.244 75.171C703.97 75.4424 703.97 75.4424 703.695 75.7137V76.2565L699.032 77.0706C698.757 77.0706 698.209 77.342 698.209 77.6134C698.209 77.8847 697.934 78.1561 697.934 78.6989V84.1264C695.74 83.3122 692.997 82.7695 690.528 82.7695C686.687 82.7695 683.121 83.5836 680.103 85.4832C676.811 87.3829 674.342 90.0966 672.696 93.3531C669.953 98.7807 668.856 108.007 675.165 111.535C673.794 112.349 672.696 113.164 671.325 113.978C667.759 116.963 666.936 120.219 670.776 123.747C667.21 125.375 661.175 128.903 660.901 132.974C660.078 142.201 672.697 145.729 680.103 145.729C685.59 145.729 690.802 144.372 695.465 141.115C697.386 140.03 698.757 138.401 700.129 136.502C701.226 134.602 702.049 132.703 702.324 130.532C702.872 123.476 697.934 120.762 692.174 119.134C688.333 118.32 684.492 117.234 680.652 115.606C679.28 114.52 680.103 113.706 680.926 112.892C681.475 113.164 682.024 113.164 682.572 113.164C683.395 113.435 684.218 113.435 685.041 113.435C688.607 113.435 691.899 112.621 694.917 111.264C697.934 109.636 700.403 107.193 702.324 104.48C703.97 101.766 704.518 98.7806 704.518 95.7955C704.518 92.8104 703.695 89.8253 702.049 87.1115C702.049 86.8401 701.775 86.8401 701.775 86.8401C702.049 86.8401 702.049 86.5688 702.324 86.5688L710.005 85.2119ZM686.961 129.175C689.156 129.989 691.076 131.074 690.802 133.517C690.528 137.045 685.59 137.859 682.572 137.859C678.732 137.859 671.051 136.23 671.599 131.074C671.874 129.175 674.891 127.275 676.263 126.461C680.103 127.004 683.67 128.089 686.961 129.175ZM693.545 95.2528C692.997 99.5948 690.802 106.651 685.315 106.651C680.103 106.651 681.475 99.3234 682.572 96.3383C683.669 93.0818 686.138 89.2825 689.979 89.2825C693.545 89.2825 693.82 92.539 693.545 95.2528Z" fill="#F2242B"/>
<path fill-rule="evenodd" clip-rule="evenodd" d="M182.478 74.8996C182.204 74.8996 181.929 75.171 181.655 75.171C181.381 75.171 181.381 75.4424 181.106 75.7137V76.2565L176.443 77.0706C176.169 77.0706 175.62 77.342 175.62 77.6134C175.346 77.8847 175.346 78.1561 175.346 78.4275V83.855C173.151 82.7695 170.408 82.4981 167.939 82.4981C164.098 82.4981 160.532 83.3122 157.515 85.2119C154.223 87.1115 151.754 89.8253 150.108 93.0818C147.365 98.5093 146.267 107.736 152.577 111.264C151.205 112.078 149.833 112.892 148.736 113.706C145.17 116.691 144.347 119.948 148.187 123.476C144.621 125.104 138.586 128.632 138.312 132.703C137.489 141.929 150.108 145.457 157.515 145.457C163.001 145.457 168.213 144.1 172.877 140.844C174.797 139.758 176.169 138.13 177.266 136.23C178.363 134.331 179.186 132.431 179.461 130.26C180.283 123.204 175.071 120.491 169.31 118.862C165.47 118.048 161.629 116.963 157.789 115.335C156.417 114.249 157.24 113.435 158.063 112.621C158.612 112.892 159.16 112.892 159.709 112.892C160.532 113.164 161.355 113.164 162.452 113.164C166.019 113.164 169.31 112.349 172.328 110.721C175.346 109.093 177.815 106.651 179.735 103.937C181.106 101.223 181.929 98.2379 181.929 95.2528C181.929 92.2676 181.106 89.2825 179.461 86.5688V86.2974C179.461 86.2974 179.461 86.026 179.186 86.026C179.186 86.026 179.46 85.7546 179.735 85.7546L185.221 84.6691L187.69 84.1264V73L182.478 74.8996ZM164.373 129.175C166.567 129.989 168.488 131.074 168.213 133.517C167.939 137.045 163.001 137.859 159.983 137.859C156.143 137.859 148.462 136.23 149.01 131.074C149.285 129.175 152.028 127.275 153.674 126.461C157.515 127.004 161.081 128.089 164.373 129.175ZM170.956 95.2528C170.408 99.5948 168.213 106.651 162.727 106.651C157.515 106.651 158.886 99.3234 159.983 96.3383C161.081 93.0818 163.55 89.2825 167.39 89.2825C170.956 89.2825 171.231 92.539 170.956 95.2528Z" fill="#F2242B"/>
<path fill-rule="evenodd" clip-rule="evenodd" d="M361.064 61.6022C358.32 61.8736 355.303 62.4163 352.559 62.9591C352.559 63.7732 352.285 64.8587 352.011 66.2156L347.622 84.3978C343.232 81.684 336.1 82.4981 331.711 84.1264C326.224 86.2974 321.561 90.0966 318.269 94.9814C313.88 101.494 311.959 109.364 312.234 117.234C312.782 122.119 315.526 126.19 321.012 126.19C329.242 126.19 335.826 121.305 340.489 114.792C339.666 118.32 339.392 121.848 339.666 125.375C339.941 127.275 348.993 125.375 350.914 124.561C351.188 120.219 351.737 115.877 352.834 111.807L364.355 65.1301C365.178 61.3308 364.355 61.3308 361.064 61.6022ZM342.135 102.851C339.666 107.736 333.357 116.691 327.87 116.691C323.207 116.691 325.127 107.465 325.95 105.022C327.596 100.138 330.613 94.4386 335.277 91.9963C338.295 90.368 343.232 89.8253 345.701 92.539C344.878 96.0669 343.781 99.3234 342.135 102.851Z" fill="#F2242B"/>
<path fill-rule="evenodd" clip-rule="evenodd" d="M550.348 92.539H559.126C561.595 92.539 563.515 87.1115 563.79 84.6691H552.268C553.365 80.5985 554.737 76.5279 555.56 72.4572C551.994 72.4572 548.427 73.2714 545.41 75.171C542.941 77.8847 541.295 81.4126 540.746 84.9405H537.454C534.985 84.9405 533.065 90.368 532.791 92.8104H538.826C538.552 94.4386 538.003 96.3383 537.454 98.5093C536.906 100.68 536.357 102.851 535.534 105.294C534.985 107.736 534.162 109.907 533.614 112.078C532.791 114.792 532.517 117.506 532.791 120.219C532.791 121.033 533.065 121.848 533.34 122.662C533.614 123.476 534.162 124.29 534.985 124.833C535.534 125.375 536.357 125.918 537.18 126.19C538.003 126.461 538.826 126.461 539.923 126.461C542.392 126.461 550.348 126.461 552.542 123.476C554.463 121.033 555.56 118.048 555.56 115.063C552.542 116.42 549.525 117.234 546.233 117.234C545.958 117.234 545.41 117.234 545.135 116.963C544.861 116.691 544.587 116.42 544.587 116.149C544.312 115.063 544.312 113.706 544.861 112.621L550.348 92.539Z" fill="#F2242B"/>
<path fill-rule="evenodd" clip-rule="evenodd" d="M395.354 87.6543C394.531 86.026 393.434 84.9405 391.788 84.1264C389.868 83.3122 387.673 82.7695 385.478 82.7695C382.735 82.7695 379.718 83.3122 377.249 84.1264C374.78 85.2119 372.311 86.5687 370.391 88.4684C368.196 90.368 366.55 92.2676 364.904 94.71C363.258 97.1524 362.161 99.5948 361.064 102.037C360.241 104.751 359.418 107.465 359.143 110.178C358.595 112.892 358.869 115.877 359.692 118.591C360.515 120.762 361.887 122.933 363.807 124.29C366.276 125.647 369.019 126.461 371.762 126.461C374.231 126.461 376.7 126.19 379.169 125.647C381.089 125.104 383.01 124.29 384.93 123.476C386.301 122.662 387.673 121.576 388.77 120.491C389.319 119.948 389.868 119.134 390.142 118.32C390.691 117.506 390.691 116.42 390.965 115.335C390.965 114.52 390.965 113.706 390.965 113.164C390.965 112.621 390.691 112.078 390.142 111.807C389.045 112.621 387.673 113.706 386.576 114.249C385.204 115.063 383.558 115.877 381.912 116.42C380.266 116.963 378.346 117.234 376.7 117.234C375.877 117.234 374.78 117.234 373.957 116.963C373.134 116.691 372.311 116.149 371.762 115.335C370.665 113.706 370.391 111.807 370.665 110.178C370.665 109.907 370.665 109.636 370.665 109.636V108.55C372.037 108.55 373.682 108.279 375.328 108.007C376.974 107.736 378.895 107.193 380.541 106.651C382.187 106.108 384.107 105.294 385.753 104.48C387.399 103.665 389.045 102.851 390.416 101.494C391.788 100.409 392.885 99.052 393.983 97.4238C394.806 95.7955 395.354 94.1673 395.628 92.2676C396.451 90.9108 396.177 89.0111 395.354 87.6543ZM384.107 96.6096C382.735 97.9665 381.364 99.052 379.718 99.5948C377.523 100.68 375.054 101.223 372.311 101.223C372.859 99.052 373.957 96.881 375.328 94.71C376.151 93.0818 377.523 91.9963 379.169 90.9108C380.266 90.0966 381.638 89.5539 382.735 89.5539C383.558 89.5539 384.107 89.8253 384.655 90.0966C384.93 90.368 385.478 90.9108 385.478 91.4535C385.478 91.9963 385.478 92.539 385.478 93.0818C385.753 94.4386 384.93 95.7955 384.107 96.6096Z" fill="#F2242B"/>
<path fill-rule="evenodd" clip-rule="evenodd" d="M247.767 83.0409C244.75 83.0409 241.458 83.0409 238.44 83.5836C238.44 84.3977 238.166 85.2119 238.166 86.026L237.069 90.368L228.29 126.461C231.582 126.732 235.148 126.19 238.166 125.375C240.086 124.833 240.909 124.29 241.458 122.39L249.962 85.7546C250.785 82.7695 249.688 83.0409 247.767 83.0409Z" fill="#F2242B"/>
<path fill-rule="evenodd" clip-rule="evenodd" d="M614.814 83.0409C611.796 83.0409 608.505 83.0409 605.487 83.5836C605.487 84.3977 605.487 85.2119 605.213 86.026L604.115 90.368L595.337 126.461C598.629 126.732 602.195 126.19 605.487 125.375C607.407 124.833 608.23 124.29 608.779 122.39L617.283 85.7546C617.832 82.7695 616.734 83.0409 614.814 83.0409Z" fill="#F2242B"/>
<path fill-rule="evenodd" clip-rule="evenodd" d="M282.607 82.7695C278.766 82.4981 274.926 83.3123 271.359 84.6691C267.793 86.026 264.501 87.9256 261.758 90.6394C256.82 95.2528 253.254 101.223 251.608 108.007C249.962 114.249 249.139 126.461 258.466 126.461C262.307 126.19 266.147 125.104 269.713 123.204C273.005 121.305 276.023 118.591 278.217 115.335C277.943 116.691 276.023 126.461 277.669 126.461C281.235 126.461 285.076 125.918 288.367 124.833C288.367 122.119 288.642 119.405 289.19 116.963L296.872 85.4833C292.208 83.5836 287.27 83.0409 282.607 82.7695ZM279.589 103.394C277.394 107.736 271.359 116.42 265.599 116.42C261.484 116.42 263.404 107.736 264.227 105.565C265.873 99.5948 270.262 92.2676 276.572 90.6394C279.04 90.0966 281.509 90.0966 283.978 90.9108C282.607 95.5241 281.235 99.5948 279.589 103.394Z" fill="#F2242B"/>
<path fill-rule="evenodd" clip-rule="evenodd" d="M621.946 91.4535C620.849 93.3531 620.026 95.5241 620.026 97.6951C620.026 99.8661 620.575 102.037 621.946 103.937C624.141 106.379 626.61 108.822 629.628 110.721C631.548 112.349 633.468 114.792 630.451 116.691C627.707 118.591 622.769 117.234 619.752 116.42C618.929 116.149 617.832 115.606 617.009 115.335C616.46 115.063 616.186 115.063 615.637 115.606C614.814 116.691 614.54 117.777 614.265 118.862C613.991 119.948 614.265 121.305 614.814 122.39C616.46 125.104 621.672 125.918 624.415 125.918C627.982 126.19 631.273 125.375 634.291 123.747C637.309 122.119 640.052 119.677 641.972 116.963C643.069 115.063 643.618 112.892 643.618 110.993C643.618 108.822 642.795 106.651 641.424 105.022C638.955 102.58 636.486 100.138 633.468 98.2379C631.822 96.6096 629.902 94.71 631.822 92.2676C634.017 90.0966 638.132 90.6394 640.601 91.4535C640.875 91.7249 641.424 91.7249 641.698 91.7249C641.972 91.7249 642.521 91.7249 642.795 91.4535C643.892 90.9108 644.715 90.0966 645.264 89.0111C645.813 87.9256 646.361 86.8401 646.361 85.7546C645.264 84.6691 643.618 83.855 642.247 83.3122C640.601 82.7695 638.955 82.4981 637.309 82.7695C634.017 82.7695 630.999 83.3122 627.982 84.9405C626.061 86.2974 623.592 88.7398 621.946 91.4535Z" fill="#F2242B"/>
<path fill-rule="evenodd" clip-rule="evenodd" d="M478.475 82.7695C475.457 82.7695 472.439 83.5836 469.696 84.9405C466.953 86.2974 464.484 88.197 462.564 90.6394C461.741 91.4535 460.918 92.2676 460.369 93.3531C460.918 88.197 459.546 83.0409 452.688 83.0409C445.007 83.0409 438.972 87.6543 434.583 93.3531H434.308C434.583 92.539 436.503 83.0409 435.406 83.0409C431.565 83.0409 427.724 83.5836 423.884 84.6691C423.61 86.2974 423.61 88.7398 423.061 90.368L415.654 122.119C415.106 123.747 414.557 125.104 414.283 126.461C416.477 126.732 425.53 126.461 426.902 124.29C427.176 123.204 427.724 122.39 427.724 121.305C428.547 116.963 429.919 112.349 431.291 108.007C433.211 103.665 440.343 92.539 445.83 92.539C449.122 92.539 448.299 96.0669 447.75 98.2379L441.166 122.662C440.892 123.476 440.069 126.19 441.715 126.19C445.556 126.19 449.396 125.647 453.237 124.561C453.237 124.019 453.511 122.662 453.785 121.033C453.785 120.491 454.06 119.677 454.334 119.134L456.803 109.636C458.175 104.48 466.13 92.2676 471.891 92.2676C475.183 92.2676 474.36 95.7955 473.811 97.9665L467.227 122.39C466.953 123.204 466.13 125.918 467.776 125.918C471.616 125.918 475.457 125.375 479.298 124.29C479.572 122.662 479.846 121.305 480.121 119.677L485.881 97.6951C486.979 91.4535 487.802 82.7695 478.475 82.7695Z" fill="#F2242B"/>
<path fill-rule="evenodd" clip-rule="evenodd" d="M586.284 104.48C588.753 103.394 590.948 101.766 592.594 99.5948C594.24 97.4238 595.337 94.9814 595.886 92.2676C596.434 85.4832 591.222 82.4981 585.187 82.4981C573.391 82.4981 564.613 91.1821 560.772 101.766C558.577 106.922 558.303 112.892 559.675 118.32C560.223 120.491 561.869 122.662 563.79 124.019C566.258 125.375 569.002 126.19 572.019 126.19C578.054 126.19 584.913 124.833 588.479 121.033C590.399 118.32 591.496 115.335 591.496 112.078C587.107 115.063 581.895 116.963 576.683 117.234C570.922 117.234 570.648 113.706 570.922 108.822C576.409 108.279 581.621 106.922 586.284 104.48ZM578.877 91.1821C579.975 90.368 581.346 89.8253 582.718 89.8253C583.267 89.8253 583.541 89.8253 583.815 90.0966C584.364 90.368 584.638 90.6394 584.913 90.9108C585.187 91.1821 585.461 91.7249 585.461 91.9963C585.461 92.2676 585.736 92.8104 585.461 93.3531C585.187 96.6096 581.895 98.7806 579.426 99.8661C577.231 100.68 574.763 101.223 572.019 101.494C573.117 97.1524 575.586 93.6245 578.877 91.1821Z" fill="#F2242B"/>
<path fill-rule="evenodd" clip-rule="evenodd" d="M231.857 82.7695C229.662 82.4981 220.609 82.7695 219.238 84.9405C218.963 86.026 218.415 86.8401 218.415 87.9256C217.592 92.539 216.494 96.881 214.848 101.223C212.928 105.565 205.796 116.691 200.309 116.691C197.017 116.691 197.84 113.164 198.389 110.993L204.973 86.5688C205.247 85.7546 206.07 83.0409 204.424 83.0409C200.584 83.0409 196.743 83.5836 192.902 84.6691C192.628 86.2974 192.354 87.6543 192.079 89.2825L186.319 111.264C184.673 117.777 183.85 126.461 192.902 126.461C200.584 126.461 206.619 121.848 211.008 116.149H211.282C211.008 116.963 209.088 126.461 210.185 126.461C214.025 126.461 217.866 125.918 221.707 124.833C221.981 122.933 221.981 121.033 222.53 119.134L229.936 87.3829C230.759 85.7546 231.034 84.1264 231.857 82.7695Z" fill="#F2242B"/>
<path fill-rule="evenodd" clip-rule="evenodd" d="M734.145 82.7695C728.384 82.7695 722.898 84.6691 718.509 87.9256C714.12 91.1821 710.553 96.0669 709.182 101.223C704.793 113.435 706.164 126.19 721.801 126.19C725.367 126.19 728.659 125.647 731.951 124.29C735.243 122.933 738.26 121.033 740.455 118.591C742.924 116.149 744.844 113.164 746.216 110.178C751.428 98.2379 750.879 82.7695 734.145 82.7695ZM734.694 105.565C733.322 110.178 729.756 118.591 723.995 118.591C717.686 118.591 719.88 108.55 720.978 104.751C722.349 99.8661 725.916 90.368 732.225 90.368C739.083 90.0966 736.066 101.766 734.694 105.565Z" fill="#F2242B"/>
<path fill-rule="evenodd" clip-rule="evenodd" d="M514.685 82.7695C502.341 82.7695 493.288 90.368 489.448 101.223C485.058 113.435 486.704 126.19 502.066 125.918C505.633 125.918 508.925 125.375 512.216 124.019C515.508 122.662 518.252 120.762 520.721 118.32C523.189 115.877 525.11 113.164 526.481 109.907C531.968 98.2379 531.145 82.7695 514.685 82.7695ZM515.234 105.565C513.862 110.178 510.296 118.591 504.261 118.591C497.952 118.591 500.146 108.55 501.243 104.751C502.615 99.8661 506.181 90.368 512.491 90.368C519.349 90.0966 516.331 101.766 515.234 105.565Z" fill="#F2242B"/>
<path fill-rule="evenodd" clip-rule="evenodd" d="M243.104 78.6989C243.927 78.9702 244.75 79.2416 245.573 79.2416C246.396 79.2416 247.219 78.9702 248.042 78.6989C248.865 78.4275 249.688 77.8847 250.236 77.0706C251.059 76.5279 251.608 75.7137 251.882 74.6282C252.431 73.5427 252.705 72.7286 252.705 71.6431C252.705 70.2862 252.431 69.2007 252.157 68.1152C251.608 67.3011 251.059 66.7583 250.236 66.487C249.413 66.2156 248.59 65.9442 247.493 65.9442C246.944 65.9442 246.121 66.2156 245.573 66.487C244.75 66.7583 243.927 67.3011 243.378 67.8438C242.555 68.3866 242.007 69.2007 241.458 70.2862C240.909 71.3717 240.635 72.4572 240.635 73.8141C240.635 75.171 240.909 76.2565 241.458 77.342C241.458 77.6134 242.281 78.4275 243.104 78.6989Z" fill="#F2242B"/>
<path fill-rule="evenodd" clip-rule="evenodd" d="M609.327 78.6989C610.15 78.9702 610.973 79.2416 611.796 79.2416C612.619 79.2416 613.442 78.9702 614.265 78.6989C615.088 78.4275 615.911 77.8847 616.46 77.0706C617.283 76.5279 617.832 75.7137 618.38 74.6282C618.929 73.5427 619.203 72.7286 619.203 71.6431C619.477 70.2862 619.203 69.2007 618.655 68.1152C618.38 67.3011 617.557 66.7583 616.734 66.487C615.911 66.2156 615.088 65.9442 613.991 65.9442C613.442 65.9442 612.619 66.2156 612.071 66.487C611.248 66.7583 610.425 67.3011 609.876 67.8438C609.053 68.3866 608.23 69.2007 607.956 70.2862C607.407 71.3717 607.133 72.4572 607.133 73.8141C607.133 75.171 607.407 76.2565 607.956 77.342C607.682 77.6134 608.505 78.4275 609.327 78.6989Z" fill="#F2242B"/>
<path fill-rule="evenodd" clip-rule="evenodd" d="M584.913 77.8847L596.434 69.2007C596.983 68.9293 597.257 68.658 597.257 68.3866C597.532 67.0297 591.222 65.9442 589.302 65.9442C588.753 65.9442 587.93 66.2156 587.382 66.7583C585.736 67.8438 579.975 74.8996 580.523 76.2565C580.798 77.342 583.815 77.8847 584.913 77.8847Z" fill="#F2242B"/>
</svg>
